<?xml version="1.0" encoding="utf-8"?>
<!-- Generator: Adobe Illustrator 15.0.0, SVG Export Plug-In . SVG Version: 6.00 Build 0)  -->
<!DOCTYPE svg PUBLIC "-//W3C//DTD SVG 1.1//EN" "http://www.w3.org/Graphics/SVG/1.1/DTD/svg11.dtd">
<svg version="1.1" id="Layer_1" xmlns="http://www.w3.org/2000/svg" xmlns:xlink="http://www.w3.org/1999/xlink" x="0px" y="0px"
	 width="457.088px" height="457.088px" viewBox="77.456 167.456 457.088 457.088"
	 enable-background="new 77.456 167.456 457.088 457.088" xml:space="preserve">
<g>
	<g id="Icon-User" transform="translate(278.000000, 278.000000)">
		<path id="Fill-57" fill="#134563" d="M28,346.544c-126.225,0-228.544-102.319-228.544-228.544
			C-200.544-8.225-98.225-110.544,28-110.544S256.544-8.225,256.544,118S154.225,346.544,28,346.544L28,346.544z M28-85.681
			c-111.881,0-203.681,91.8-203.681,203.681S-83.881,321.682,28,321.682S231.682,229.881,231.682,118
			C231.682,6.119,139.881-85.681,28-85.681L28-85.681z"/>
		<path id="Fill-58" fill="#134563" d="M-105.875,283.432l-22.95-10.52c6.694-16.256,27.731-24.862,51.638-35.381
			c22.95-10.519,51.638-22.95,51.638-38.25v-21.037c-8.606-6.694-21.994-21.994-23.906-43.988
			c-6.694-6.693-17.213-19.125-17.213-34.425c0-9.562,3.825-17.212,6.694-21.994c-1.913-10.519-5.738-31.556-5.738-47.812
			c0-52.594,36.338-87.019,93.713-87.019c16.256,0,36.338,4.781,46.855,16.257c25.819,4.781,46.856,35.381,46.856,70.762
			c0,22.95-3.825,42.075-6.693,50.681c2.868,4.781,5.737,11.475,5.737,19.125c0,18.169-8.605,29.644-17.213,35.382
			c-1.912,21.993-14.344,36.337-21.993,43.031v21.037c0,13.387,23.906,21.994,45.899,30.6c25.819,9.562,52.594,19.125,61.2,41.119
			l-23.906,8.605c-3.825-11.475-26.774-19.125-45.899-26.774c-29.645-10.519-63.113-22.95-63.113-53.55v-34.426l5.738-3.824
			c0.956,0,17.212-11.476,17.212-33.469v-8.606l7.65-2.869c0.956-0.956,8.606-4.781,8.606-16.256c0-3.825-2.869-7.65-3.825-8.606
			l-4.781-5.737l1.912-6.694c0,0,6.694-21.038,6.694-49.725c0-23.906-13.388-45.899-27.731-45.899h-7.65l-3.825-6.694
			c-2.868-4.781-14.344-9.562-29.644-9.562c-43.031,0-68.85,22.95-68.85,62.156c0,18.169,6.693,47.812,6.693,47.812l1.913,6.694
			l-4.781,4.781c0,0-3.825,4.781-3.825,9.562c0,6.694,8.606,15.3,12.431,19.125l4.781,3.825v6.694
			c0,21.037,18.168,32.512,18.168,32.512l5.738,3.825v34.425c0,31.557-35.381,47.812-66.938,61.2
			C-81.969,267.175-102.05,276.737-105.875,283.432"/>
	</g>
</g>
</svg>
