<?xml version="1.0" encoding="utf-8"?>
<!-- Generator: Adobe Illustrator 15.0.0, SVG Export Plug-In . SVG Version: 6.00 Build 0)  -->
<!DOCTYPE svg PUBLIC "-//W3C//DTD SVG 1.1//EN" "http://www.w3.org/Graphics/SVG/1.1/DTD/svg11.dtd">
<svg version="1.1" id="Layer_1" xmlns="http://www.w3.org/2000/svg" xmlns:xlink="http://www.w3.org/1999/xlink" x="0px" y="0px"
	 width="365.35px" height="88.853px" viewBox="0 0 365.35 88.853" enable-background="new 0 0 365.35 88.853" xml:space="preserve">
<path fill="#231F20" d="M50.641,69.299v-0.578c0.332-0.015,0.656-0.031,0.978-0.045c0.912-0.03,1.812-0.138,2.696-0.384
	c1.862-0.515,2.976-2.85,3.445-4.7c0.305-1.208,0.404-2.441,0.404-3.676c0.008-13.368,0-16.956,0-30.324
	c0-6.617-2.347-9.493-7.633-10.928h-0.327v-0.579c0.409-0.032,23.068-8.702,23.733-8.702v0.374c0,16.443-0.002,32.827,0.004,49.271
	c0.002,1.219,0.038,2.438,0.127,3.653c0.046,0.653,0.185,1.31,0.372,1.938c0.445,1.485,1.538,3.398,2.999,3.756
	c1.006,0.244,2.031,0.309,3.062,0.342c0.197,0.005,0.393,0,0.608,0v0.581H50.641z"/>
<path fill="#919195" d="M208.119,46.511h-24.187c0,0.674-0.017,1.319,0.004,1.966c0.072,2.366,0.449,4.677,1.383,6.869
	c1.658,3.889,4.527,6.372,8.729,7.018c4.721,0.728,8.926-0.507,12.447-3.821c0.191-0.179,0.361-0.382,0.562-0.6l0.346,0.3
	c0,0-1.999,3.497-3.235,5.046c-2.905,3.637-5.509,5.435-10.145,6.452c-2.399,0.526-4.847,0.541-7.282,0.191
	c-7.412-1.072-13.39-5.953-15.378-13.524c-1.477-5.618-1.055-11.148,1.403-16.437c2.333-5.013,6.14-8.477,11.415-10.245
	c2.918-0.978,5.922-1.243,8.977-0.911c3.35,0.366,6.416,1.465,9.089,3.545c3.14,2.445,4.989,5.667,5.672,9.575
	c0.243,1.383,0.296,2.773,0.241,4.172C208.153,46.228,208.135,46.348,208.119,46.511 M195.463,44.98
	c0.014-0.058,0.028-0.099,0.028-0.14c0-2.842,0.149-4.109,0-6.526c-0.224-3.651-2.019-7.701-4.974-7.701
	c-2.971,0-5.186,4.409-5.724,6.923c-0.421,1.961-0.59,3.38-0.765,5.371c-0.051,0.598-0.077,1.468-0.116,2.073H195.463z"/>
<path fill="#919195" d="M246.833,69.234v-0.513c2.865-0.518,5.134-2.274,5.134-7.383l0.002-22.665c0-4.07-2.312-5.826-5.134-6.673
	v-0.496c0.109-0.004,16.623-2.234,17.652-2.488v0.383v31.939c0,5.108,1.713,7.054,5.209,7.383v0.513H246.833z"/>
<path fill="#919195" d="M258.344,26.427c-3.197,0.002-6.053-2.076-6.869-5.05c-0.625-2.277,0.021-4.25,1.621-5.909
	c2.627-2.725,6.879-2.969,9.785-0.559c1.73,1.434,2.62,3.286,2.365,5.561c-0.244,2.159-1.402,3.776-3.225,4.919
	C260.904,26.091,259.668,26.427,258.344,26.427"/>
<path fill="#919195" d="M338.973,69.234h-22.645v-0.481c2.699-0.709,5.078-2.283,5.133-7.381V37.539
	c0-4.212-1.436-6.446-5.125-8.042v-0.48h17.555L334,36.861c0.51-0.783,0.981-1.604,1.551-2.349c2.47-3.237,5.738-5.148,9.769-5.73
	c2.739-0.395,5.445-0.262,8.048,0.745c3.646,1.415,5.818,4.097,6.555,7.918c0.191,0.985,0.269,2.005,0.271,3.013
	c0.023,7.259,0.017,20.88,0.017,20.88c0,5.108,1.795,6.845,5.141,7.383v0.502h-22.637v-0.502c3.22-0.868,4.978-2.274,4.978-7.383
	l0.011-20.498c0-1.109-0.192-2.19-0.658-3.204c-0.813-1.786-2.193-2.887-4.121-3.253c-2.166-0.409-4.204-0.078-6.004,1.265
	c-1.469,1.097-2.283,2.627-2.645,4.389c-0.173,0.844-0.277,1.719-0.281,2.581c-0.021,6.479-0.012,18.721-0.012,18.721
	c0,5.228,1.807,6.785,4.992,7.383V69.234z"/>
<path fill="#919195" d="M285.739,38.763c0.13-1.889,0.471-3.75,1.289-5.485c0.492-1.045,1.162-1.945,2.246-2.451
	c1.565-0.734,3.398-0.292,4.551,1.088c0.918,1.097,1.39,2.404,1.728,3.767c0.442,1.767,0.623,3.569,0.677,5.383
	c0.018,0.594,0.002,1.186,0.002,1.78c0.016,2.429-0.084,4.856-0.675,7.23c-0.317,1.286-0.756,2.529-1.61,3.575
	c-1.715,2.104-4.668,2.023-6.276-0.168c-0.851-1.159-1.256-2.503-1.545-3.886c-0.378-1.791-0.554-3.605-0.543-5.436
	C285.592,42.362,285.618,40.559,285.739,38.763 M314.198,69.897c-0.647-2.825-2.385-4.854-4.881-6.252
	c-2.736-1.537-5.738-2.081-8.826-2.248c-1.688-0.09-3.383-0.102-5.073-0.151c-2.626-0.079-4.438-0.152-7.062-0.239
	c-1.735-0.06-3.472-0.105-5.201-0.226c-1.024-0.071-2.016-0.353-2.873-0.961c-0.854-0.606-1.192-1.284-1.043-2.335
	c0.164-1.145,0.765-1.644,1.752-2.185c0.133-0.073,0.339-0.094,0.484-0.048c2.245,0.687,4.529,1.153,6.866,1.375
	c0.858,0.082,1.714,0.132,2.568,0.147c0.854-0.016,1.71-0.065,2.567-0.147c2.338-0.222,5.42-0.867,6.866-1.375
	c1.114-0.391,1.425-0.64,1.425-0.64c0.549-0.293,1.098-0.562,1.621-0.871c2.809-1.67,4.874-3.966,5.78-7.152
	c1.288-4.54,0.251-8.546-3-11.949c-0.017-0.019-0.037-0.035-0.056-0.054l7.328-5.569H290.91h-0.001
	c-2.049-0.019-4.079,0.193-6.081,0.672c-3.498,0.835-6.662,2.313-9.179,4.951c-3.25,3.403-4.287,7.409-3,11.949
	c0.906,3.187,2.973,5.482,5.78,7.152c0.523,0.31,1.072,0.578,1.622,0.871c-0.058,0.026-0.094,0.049-0.137,0.06
	c-2.008,0.546-3.742,1.579-5.217,3.027c-1.971,1.939-3.106,3.787-2.844,6.64c0.227,2.451,1.275,4.429,3.318,5.838
	c1.951,1.346,4.178,1.852,6.493,2.027c2.476,0.185,4.955,0.326,7.435,0.486c2.973,0.193,5.131,0.359,8.098,0.597
	c1,0.08,2.01,0.259,2.974,0.531c1.661,0.466,2.868,1.49,3.267,3.24c0.565,2.485-0.072,4.636-1.912,6.406
	c-1.291,1.244-2.85,2.038-4.531,2.609c-2.471,0.842-4.207,1.146-6.807,1.143c-2.318-0.005-4.609-0.201-6.85-0.822
	c-1.732-0.479-3.355-1.184-4.697-2.426c-2.466-2.285-2.724-6.235,0.371-8.576c0.934-0.705,1.984-1.156,3.121-1.425
	c0-0.03,0.002-0.06,0.004-0.09c-0.509-0.116-1.012-0.299-1.525-0.332c-1.605-0.096-3.209-0.039-4.795,0.249
	c-1.703,0.309-3.332,0.812-4.744,1.854c-1.684,1.241-2.457,2.887-2.113,4.989c0.234,1.439,0.996,2.588,2.057,3.554
	c1.568,1.427,3.452,2.28,5.438,2.935c3.476,1.141,7.066,1.573,10.703,1.696c3.104,0.103,5.383-0.067,8.449-0.578
	c3.508-0.582,6.892-1.562,10.047-3.231c2.508-1.324,4.735-2.998,6.437-5.303C314.265,76.761,315.018,73.481,314.198,69.897"/>
<rect x="280.051" y="54.614" transform="matrix(0.6615 -0.7499 0.7499 0.6615 53.7368 228.9726)" fill="#919195" width="0.939" height="0.687"/>
<path fill="#919195" d="M241.013,44.01l-0.478,0.076c-0.586-3.647-2.061-11.893-9.62-13.229c-3.793-0.671-7.129,1.713-7.828,4.41
	c-0.623,2.412,0.267,4.751,2.754,6.215c1.11,0.655,2.326,1.048,3.519,1.502c2.533,0.964,5.08,1.884,7.588,2.906
	c1.886,0.767,3.611,1.822,5.059,3.286c1.624,1.642,2.566,3.619,2.741,5.916c0.435,5.606-1.998,9.707-6.74,12.525
	c-2.075,1.234-4.362,1.888-6.739,2.245c-3.625,0.547-7.183,0.121-10.742-0.621c-2.701-0.562-5.28-1.357-6.869-1.914l0.808-14.182
	h0.496c0,0,0.354,3.146,0.576,4.291c0.517,2.661,0.424,4.728,2.399,6.938c2.037,2.281,4.258,3.403,7.305,3.685
	c1.744,0.162,3.459,0.064,5.084-0.662c1.91-0.852,3.171-1.875,3.553-3.963c0.415-2.251-0.096-4.26-1.882-5.677
	c-1.353-1.076-2.929-1.735-4.517-2.356c-2.31-0.899-4.636-1.762-6.933-2.693c-1.637-0.664-3.162-1.547-4.524-2.688
	c-2.104-1.762-3.373-3.983-3.678-6.73c-0.328-2.986,0.227-5.771,1.919-8.285c1.591-2.361,3.792-3.981,6.437-4.929
	c3.186-1.141,6.402-1.378,9.263-1.247c3.944,0.181,6.401,0.933,9.396,2.399c0.773,0.379,1.584,0.807,2.463,1.282L241.013,44.01z"/>
<path fill="#919195" d="M151.463,37.676v-0.245c0-6.229,0.004-14.463-0.004-20.692c0-4.11-3.29-6.413-5.292-6.572V9.653
	l17.704,0.003v0.285c0,17.375-0.003,34.987,0.009,52.362c0,2.976,1.153,6.041,5.263,6.418v0.509h-17.827
	c0.052-3.727,0.104-6.744,0.156-10.438c-0.02-0.004-0.04-0.007-0.06-0.011c-0.041,0.125-0.084,0.252-0.123,0.379
	c-0.786,2.533-2.037,4.802-3.902,6.701c-1.908,1.942-4.207,3.196-6.87,3.772c-1.556,0.336-3.129,0.447-4.712,0.286
	c-2.488-0.253-4.713-1.182-6.69-2.705c-2.302-1.774-3.953-4.057-5.167-6.672c-1.037-2.235-1.671-4.586-1.987-7.027
	c-0.195-1.506-0.273-3.017-0.224-4.534c0.115-3.626,0.789-7.13,2.367-10.423c1.493-3.117,3.61-5.701,6.566-7.55
	c1.938-1.212,4.048-1.939,6.321-2.18c6.205-0.659,11.58,2.814,13.959,7.745c0.175,0.363,0.317,0.743,0.475,1.115
	C151.438,37.684,151.451,37.68,151.463,37.676 M151.773,48.472c-0.006-1.814-0.104-3.447-0.339-5.071
	c-0.254-1.737-0.657-3.435-1.34-5.057c-0.665-1.579-1.55-3.009-2.88-4.129c-2.181-1.836-5.273-1.98-7.526-0.34
	c-1.071,0.78-1.832,1.814-2.426,2.981c-0.861,1.695-1.326,3.513-1.62,5.377c-0.367,2.335-0.497,4.687-0.404,7.048
	c0.051,1.291,0.136,2.582,0.257,3.867c0.156,1.656,0.495,3.28,1.032,4.858c0.563,1.651,1.321,3.196,2.61,4.413
	c1.611,1.521,3.516,2.059,5.681,1.562c1.542-0.353,2.69-1.303,3.628-2.531c1.041-1.365,1.702-2.918,2.189-4.551
	C151.473,54.095,151.757,51.213,151.773,48.472"/>
<path fill="#231F20" d="M46.902,47.655c-0.254-3.314-1.613-6.17-3.957-8.54c-2.088-2.112-4.581-3.635-7.301-4.743
	c-3.619-1.474-7.298-2.802-10.953-4.195c-1.722-0.653-3.477-1.222-5.08-2.168c-3.59-2.112-4.874-5.489-3.973-8.97
	c1.007-3.893,5.824-7.333,11.299-6.365C37.846,14.602,39.976,26.505,40.82,31.77l0.692-0.11l1.165-16.6
	c-1.271-0.687-2.438-1.303-3.554-1.851c-4.324-2.117-7.869-3.202-13.561-3.464c-4.129-0.189-8.774,0.154-13.371,1.801
	c-3.818,1.368-6.994,3.705-9.291,7.114c-2.442,3.629-3.243,7.646-2.77,11.958c0.44,3.966,2.271,7.172,5.308,9.717
	c1.967,1.646,4.168,2.921,6.531,3.88c3.315,1.346,6.673,2.588,10.005,3.887c2.294,0.896,4.568,1.848,6.521,3.401
	c0.99,0.786,1.706,1.699,2.184,2.708H30.67c0.085,0.149,0.122,0.312,0.192,0.465c0.591,1.509,0.696,3.207,0.362,5.021l0.008,0.01
	c-0.018,0.107-0.025,0.21-0.045,0.318c-0.534,2.92-2.294,4.349-4.967,5.539c-2.269,1.014-4.666,1.152-7.105,0.924
	c-0.052-0.004-0.099-0.011-0.151-0.016c-2.285-0.262-3.812-0.579-4.823-0.849c-2.78-0.761-5.05-2.23-7.174-4.607
	c-2.761-3.091-2.632-5.978-3.353-9.698c-0.311-1.6-0.806-5.994-0.806-5.994H0.968l0.019,19.817c2.222,0.778,5.827,1.89,9.6,2.675
	c0.392,0.082,0.784,0.14,1.176,0.215l-0.002,0.027c3.72,0.737,5.899,0.973,6.777,1.047c2.981,0.318,5.974,0.359,9.002-0.098
	c3.321-0.499,6.519-1.411,9.419-3.136c0.073-0.044,0.138-0.093,0.211-0.138l0.002,0.002c0.055-0.032,0.101-0.071,0.156-0.104
	c0.567-0.351,1.112-0.713,1.629-1.091C44.601,60.534,47.472,54.997,46.902,47.655"/>
<polygon fill="#231F20" points="121,0 90.419,79.602 94.402,79.602 125.095,0 "/>
</svg>
